{
    "asset": {
        "generator": "SOLIDWORKSGLTF",
        "version": "2.0"
    },
    "scene": 0,
    "scenes": [
        {
            "name": "Valor predeterminado",
            "nodes": [
                0,
                1
            ]
        }
    ],
    "nodes": [
        {
            "matrix": [
                0.8168279623592499,
                0.4984228829340337,
                -0.2904594802649108,
                0.0,
                -0.5734068376161088,
                0.7566626268428267,
                -0.31411187133632257,
                0.0,
                0.06321928885339559,
                0.4231268118508202,
                0.9038622807761321,
                0.0,
                0.4067485911138117,
                1.224118596918943,
                2.2410745461106414,
                1.0
            ],
            "camera": 0,
            "name": "current camera"
        },
        {
            "mesh": 0,
            "name": "BB8-2020"
        }
    ],
    "cameras": [
        {
            "type": "perspective",
            "perspective": {
                "aspectRatio": 1.2941176470588236,
                "yfov": 0.44619942991131656,
                "zfar": 3.0981193161970006,
                "znear": 2.1701040802969063
            }
        }
    ],
    "meshes": [
        {
            "primitives": [
                {
                    "attributes": {
                        "POSITION": 1,
                        "NORMAL": 2
                    },
                    "indices": 0,
                    "material": 0,
                    "mode": 4
                },
                {
                    "attributes": {
                        "POSITION": 4,
                        "NORMAL": 5
                    },
                    "indices": 3,
                    "material": 1,
                    "mode": 4
                },
                {
                    "attributes": {
                        "POSITION": 7,
                        "NORMAL": 8
                    },
                    "indices": 6,
                    "material": 2,
                    "mode": 4
                },
                {
                    "attributes": {
                        "POSITION": 10,
                        "NORMAL": 11
                    },
                    "indices": 9,
                    "material": 3,
                    "mode": 4
                },
                {
                    "attributes": {
                        "POSITION": 13,
                        "NORMAL": 14
                    },
                    "indices": 12,
                    "material": 4,
                    "mode": 4
                },
                {
                    "attributes": {
                        "POSITION": 16,
                        "NORMAL": 17
                    },
                    "indices": 15,
                    "material": 5,
                    "mode": 4
                },
                {
                    "attributes": {
                        "POSITION": 19,
                        "NORMAL": 20
                    },
                    "indices": 18,
                    "material": 6,
                    "mode": 4
                },
                {
                    "attributes": {
                        "POSITION": 22,
                        "NORMAL": 23
                    },
                    "indices": 21,
                    "material": 7,
                    "mode": 4
                },
                {
                    "attributes": {
                        "POSITION": 25,
                        "NORMAL": 26
                    },
                    "indices": 24,
                    "material": 8,
                    "mode": 4
                }
            ]
        }
    ],
    "accessors": [
        {
            "bufferView": 0,
            "byteOffset": 0,
            "componentType": 5125,
            "count": 20790,
            "type": "SCALAR",
            "min": [
                0
            ],
            "max": [
                8469
            ]
        },
        {
            "bufferView": 1,
            "byteOffset": 0,
            "componentType": 5126,
            "count": 8470,
            "type": "VEC3",
            "min": [
                0.08220776170492172,
                0.007207761984318495,
                -0.1678362637758255
            ],
            "max": [
                0.38999998569488525,
                0.3318036198616028,
                0.14000000059604645
            ]
        },
        {
            "bufferView": 2,
            "byteOffset": 0,
            "componentType": 5126,
            "count": 8470,
            "type": "VEC3",
            "min": [
                -1.0,
                -1.0,
                -1.0
            ],
            "max": [
                1.0,
                1.0,
                1.0
            ]
        },
        {
            "bufferView": 0,
            "byteOffset": 83160,
            "componentType": 5125,
            "count": 31539,
            "type": "SCALAR",
            "min": [
                0
            ],
            "max": [
                16410
            ]
        },
        {
            "bufferView": 1,
            "byteOffset": 101640,
            "componentType": 5126,
            "count": 16411,
            "type": "VEC3",
            "min": [
                0.08171156048774719,
                0.006711557041853666,
                -0.16833803057670593
            ],
            "max": [
                0.4182884395122528,
                0.34328845143318176,
                0.1682884395122528
            ]
        },
        {
            "bufferView": 2,
            "byteOffset": 101640,
            "componentType": 5126,
            "count": 16411,
            "type": "VEC3",
            "min": [
                -1.0,
                -1.0,
                -1.0
            ],
            "max": [
                1.0,
                1.0,
                1.0
            ]
        },
        {
            "bufferView": 0,
            "byteOffset": 209316,
            "componentType": 5125,
            "count": 309,
            "type": "SCALAR",
            "min": [
                0
            ],
            "max": [
                158
            ]
        },
        {
            "bufferView": 1,
            "byteOffset": 298572,
            "componentType": 5126,
            "count": 159,
            "type": "VEC3",
            "min": [
                0.25,
                0.22100740671157837,
                0.16456924378871918
            ],
            "max": [
                0.2754012644290924,
                0.2339584082365036,
                0.16740930080413818
            ]
        },
        {
            "bufferView": 2,
            "byteOffset": 298572,
            "componentType": 5126,
            "count": 159,
            "type": "VEC3",
            "min": [
                -0.4308333694934845,
                -1.0,
                0.0
            ],
            "max": [
                1.0,
                1.0,
                0.9566511511802673
            ]
        },
        {
            "bufferView": 0,
            "byteOffset": 210552,
            "componentType": 5125,
            "count": 3519,
            "type": "SCALAR",
            "min": [
                0
            ],
            "max": [
                1804
            ]
        },
        {
            "bufferView": 1,
            "byteOffset": 300480,
            "componentType": 5126,
            "count": 1805,
            "type": "VEC3",
            "min": [
                0.07500629872083664,
                0.13528040051460266,
                -0.07090723514556885
            ],
            "max": [
                0.10050874948501587,
                0.21472908556461334,
                0.03968941047787666
            ]
        },
        {
            "bufferView": 2,
            "byteOffset": 300480,
            "componentType": 5126,
            "count": 1805,
            "type": "VEC3",
            "min": [
                -0.9999639987945557,
                -0.9999914765357971,
                -0.9999222159385681
            ],
            "max": [
                0.0,
                0.9998539090156555,
                0.9990006685256958
            ]
        },
        {
            "bufferView": 0,
            "byteOffset": 224628,
            "componentType": 5125,
            "count": 3015,
            "type": "SCALAR",
            "min": [
                0
            ],
            "max": [
                1480
            ]
        },
        {
            "bufferView": 1,
            "byteOffset": 322140,
            "componentType": 5126,
            "count": 1481,
            "type": "VEC3",
            "min": [
                0.21090519428253174,
                0.10381384938955307,
                0.14885340631008148
            ],
            "max": [
                0.2908315360546112,
                0.2461875081062317,
                0.17350034415721893
            ]
        },
        {
            "bufferView": 2,
            "byteOffset": 322140,
            "componentType": 5126,
            "count": 1481,
            "type": "VEC3",
            "min": [
                -0.9992825388908386,
                -0.9999808073043823,
                0.0
            ],
            "max": [
                0.9998477101325989,
                0.9998477101325989,
                0.9914714694023132
            ]
        },
        {
            "bufferView": 0,
            "byteOffset": 236688,
            "componentType": 5125,
            "count": 2709,
            "type": "SCALAR",
            "min": [
                0
            ],
            "max": [
                1360
            ]
        },
        {
            "bufferView": 1,
            "byteOffset": 339912,
            "componentType": 5126,
            "count": 1361,
            "type": "VEC3",
            "min": [
                0.3995300531387329,
                0.1066342145204544,
                -0.06805045902729034
            ],
            "max": [
                0.42452338337898254,
                0.24275386333465576,
                0.06737162172794342
            ]
        },
        {
            "bufferView": 2,
            "byteOffset": 339912,
            "componentType": 5126,
            "count": 1361,
            "type": "VEC3",
            "min": [
                0.0,
                -0.9766845107078552,
                -1.0
            ],
            "max": [
                0.9972765445709229,
                0.9999257326126099,
                0.9998490810394287
            ]
        },
        {
            "bufferView": 0,
            "byteOffset": 247524,
            "componentType": 5125,
            "count": 6363,
            "type": "SCALAR",
            "min": [
                0
            ],
            "max": [
                2914
            ]
        },
        {
            "bufferView": 1,
            "byteOffset": 356244,
            "componentType": 5126,
            "count": 2915,
            "type": "VEC3",
            "min": [
                0.1776149868965149,
                0.0,
                -0.07240112870931625
            ],
            "max": [
                0.2953254282474518,
                0.026733608916401863,
                0.07240219414234161
            ]
        },
        {
            "bufferView": 2,
            "byteOffset": 356244,
            "componentType": 5126,
            "count": 2915,
            "type": "VEC3",
            "min": [
                -0.9999915361404419,
                -1.0,
                -0.9994242191314697
            ],
            "max": [
                0.9999915361404419,
                0.0,
                1.0
            ]
        },
        {
            "bufferView": 0,
            "byteOffset": 272976,
            "componentType": 5125,
            "count": 4203,
            "type": "SCALAR",
            "min": [
                0
            ],
            "max": [
                1848
            ]
        },
        {
            "bufferView": 1,
            "byteOffset": 391224,
            "componentType": 5126,
            "count": 1849,
            "type": "VEC3",
            "min": [
                0.2126336544752121,
                0.10572764277458191,
                -0.17498522996902466
            ],
            "max": [
                0.2873663604259491,
                0.2442723661661148,
                -0.1497434824705124
            ]
        },
        {
            "bufferView": 2,
            "byteOffset": 391224,
            "componentType": 5126,
            "count": 1849,
            "type": "VEC3",
            "min": [
                -0.8421580195426941,
                -1.0,
                -0.999915599822998
            ],
            "max": [
                1.0,
                1.0,
                0.0
            ]
        },
        {
            "bufferView": 0,
            "byteOffset": 289788,
            "componentType": 5125,
            "count": 46959,
            "type": "SCALAR",
            "min": [
                0
            ],
            "max": [
                22812
            ]
        },
        {
            "bufferView": 1,
            "byteOffset": 413412,
            "componentType": 5126,
            "count": 22813,
            "type": "VEC3",
            "min": [
                0.07500629872083664,
                0.00008491887274431065,
                -0.17488537728786469
            ],
            "max": [
                0.42487260699272156,
                0.3494408428668976,
                0.1748763769865036
            ]
        },
        {
            "bufferView": 2,
            "byteOffset": 413412,
            "componentType": 5126,
            "count": 22813,
            "type": "VEC3",
            "min": [
                -1.0,
                -1.0,
                -1.0
            ],
            "max": [
                1.0,
                1.0,
                1.0
            ]
        }
    ],
    "materials": [
        {
            "doubleSided": true,
            "name": "defaultplastic",
            "pbrMetallicRoughness": {
                "baseColorFactor": [
                    0.0,
                    0.0,
                    0.0,
                    1.0
                ],
                "metallicFactor": 0.0,
                "roughnessFactor": 0.16999999880790712
            }
        },
        {
            "doubleSided": true,
            "name": "defaultplastic",
            "pbrMetallicRoughness": {
                "baseColorFactor": [
                    0.8122415004576116,
                    0.16687227469863247,
                    0.0004925038512690163,
                    1.0
                ],
                "metallicFactor": 0.0,
                "roughnessFactor": 0.16999999880790712
            }
        },
        {
            "doubleSided": true,
            "name": "defaultplastic",
            "pbrMetallicRoughness": {
                "baseColorFactor": [
                    0.21951974663564947,
                    0.21951974663564947,
                    0.21951974663564947,
                    1.0
                ],
                "metallicFactor": 0.0,
                "roughnessFactor": 0.16999999880790712
            }
        },
        {
            "doubleSided": true,
            "name": "polishedsteel",
            "pbrMetallicRoughness": {
                "baseColorFactor": [
                    0.5731588967040465,
                    0.5417983787732485,
                    0.5113978427838181,
                    1.0
                ],
                "metallicFactor": 1.0,
                "roughnessFactor": 0.13999999761581422
            }
        },
        {
            "doubleSided": true,
            "name": "polishedsteel",
            "pbrMetallicRoughness": {
                "baseColorFactor": [
                    0.5731588967040465,
                    0.5417983787732485,
                    0.5113978427838181,
                    1.0
                ],
                "metallicFactor": 1.0,
                "roughnessFactor": 0.13999999761581422
            }
        },
        {
            "doubleSided": true,
            "name": "polishedsteel",
            "pbrMetallicRoughness": {
                "baseColorFactor": [
                    0.5731588967040465,
                    0.5417983787732485,
                    0.5113978427838181,
                    1.0
                ],
                "metallicFactor": 1.0,
                "roughnessFactor": 0.13999999761581422
            }
        },
        {
            "doubleSided": true,
            "name": "polishedsteel",
            "pbrMetallicRoughness": {
                "baseColorFactor": [
                    0.5731588967040465,
                    0.5417983787732485,
                    0.5113978427838181,
                    1.0
                ],
                "metallicFactor": 1.0,
                "roughnessFactor": 0.13999999761581422
            }
        },
        {
            "doubleSided": true,
            "name": "polishedsteel",
            "pbrMetallicRoughness": {
                "baseColorFactor": [
                    0.5731588967040465,
                    0.5417983787732485,
                    0.5113978427838181,
                    1.0
                ],
                "metallicFactor": 1.0,
                "roughnessFactor": 0.13999999761581422
            }
        },
        {
            "doubleSided": true,
            "name": "ceramic",
            "pbrMetallicRoughness": {
                "baseColorFactor": [
                    1.0,
                    0.8912620430916338,
                    0.7893137541670049,
                    1.0
                ],
                "metallicFactor": 0.0,
                "roughnessFactor": 0.0
            }
        }
    ],
    "bufferViews": [
        {
            "buffer": 0,
            "byteOffset": 0,
            "byteLength": 477624,
            "target": 34963
        },
        {
            "buffer": 0,
            "byteOffset": 477624,
            "byteLength": 687168,
            "byteStride": 12,
            "target": 34962
        },
        {
            "buffer": 0,
            "byteOffset": 1164792,
            "byteLength": 687168,
            "byteStride": 12,
            "target": 34962
        }
    ],
    "buffers": [
        {
            "uri": "BB8-2020.bin",
            "byteLength": 1851960
        }
    ]
}
